# Blender v2.69 (sub 0) OBJ File: 'untitled.blend'
# www.blender.org
v 3.945405 -1.048542 -3.623020
v 4.102099 -1.000000 5.959038
v -4.102099 -1.000000 3.623020
v -3.945403 -1.048542 -3.623022
v 3.945407 0.951458 -3.623019
v 4.102097 1.000000 5.959041
v -4.102101 1.000000 3.623019
v -3.945405 0.951458 -3.623020
v 0.000000 -1.000000 5.959038
v -0.000002 1.000000 5.959039
v -0.010149 -1.000000 3.576048
v -0.010151 1.000000 3.576048
vt 0.000000 0.006987
vt 0.000000 0.358823
vt 0.351836 0.365809
vt 0.000000 0.372796
vt 0.000000 0.724632
vt 0.465263 0.000000
vt 0.465263 0.465315
vt 0.817099 0.465315
vt 0.817099 0.817151
vt 0.999562 0.817151
vt 0.999562 0.465315
vt 0.465263 0.817196
vt 0.113427 0.731619
vt 0.113427 1.083455
vt 0.465263 0.731619
vt 0.817099 0.351836
vt 1.000000 0.351836
vt 1.000000 0.000000
vt 0.817099 0.932896
vt 0.817099 0.817196
vt 0.465263 0.932896
vt 0.465263 0.182905
vt 0.349555 0.183357
vt 0.465263 0.548714
vt 0.349555 0.548262
vt 0.817099 0.000000
vt 0.465263 1.083455
vn 0.000000 0.999978 -0.006699
vn -0.000000 -0.999978 0.006699
vn -0.999866 -0.000001 0.016351
vn -0.011478 -0.000000 -0.999934
vn 0.999766 0.000001 0.021620
vn -0.000000 -0.000001 1.000000
vn 0.000000 0.000000 -1.000000
vn 0.999991 0.000001 -0.004259
vn 0.000000 1.000000 -0.000000
vn 0.002964 0.999982 -0.005114
vn -0.000078 0.999977 -0.006785
vn 0.000000 -1.000000 -0.000000
vn -0.002964 -0.999982 0.005114
vn 0.000078 -0.999977 0.006785
vn -0.999866 0.000001 0.016350
vn 0.000001 0.000001 -1.000000
s off
f 1/1/1 4/2/1 3/3/1
f 8/4/2 5/5/2 7/3/2
f 1/6/3 2/7/3 6/8/3
f 11/9/4 3/10/4 7/11/4
f 3/7/5 4/12/5 7/8/5
f 5/13/6 8/14/6 1/15/6
f 2/16/7 9/17/7 10/18/7
f 9/19/8 11/20/8 10/21/8
f 9/22/9 2/6/9 11/23/9
f 2/6/10 1/1/10 11/23/10
f 1/1/11 3/3/11 11/23/11
f 6/15/12 10/24/12 12/25/12
f 5/5/13 6/15/13 12/25/13
f 7/3/14 5/5/14 12/25/14
f 5/26/15 1/6/15 6/8/15
f 12/8/4 11/9/4 7/11/4
f 4/12/5 8/20/5 7/8/5
f 8/14/6 4/27/6 1/15/6
f 6/26/16 2/16/16 10/18/16
f 11/20/8 12/12/8 10/21/8
